<?xml version="1.0" standalone="no"?>
<!DOCTYPE svg PUBLIC "-//W3C//DTD SVG 20010904//EN" "http://www.w3.org/TR/2001/REC-SVG-20010904/DTD/svg10.dtd">
<svg version="1" xmlns="http://www.w3.org/2000/svg" width="5033pt" height="1155pt"
  viewBox="0 0 5033 1155" preserveAspectRatio="xMidYMid meet">

  <g transform="translate(0,1155) scale(0.1,-0.1)" fill="#000000" stroke="none">
    <path d="M 8790 10389 c -50 -20 -108 -74 -675 -640 l -620 -619 l -1940 -3 c -1918 -3 -1941 -3 -2040 -24 c -237 -49 -398 -104 -588 -201 c -535 -271 -930 -766 -1078 -1348 c -66 -262 -62 -151 -67 -2069 c -2 -1142 0 -1801 7 -1916 c 10 -169 30 -299 72 -474 c 10 -44 19 -87 19 -95 c 0 -8 -46 -44 -103 -80 c -88 -56 -163 -123 -547 -490 c -563 -538 -527 -502 -557 -566 c -21 -47 -25 -67 -22 -133 c 3 -65 9 -85 34 -127 c 44 -71 990 -935 1063 -971 c 105 -52 258 -40 349 26 c 54 39 814 840 910 959 c 42 50 78 92 82 92 c 3 0 60 -16 126 -35 c 170 -51 267 -72 400 -90 c 100 -13 366 -15 1953 -15 c 1194 0 1867 4 1922 10 c 494 60 934 278 1275 631 c 162 168 269 323 376 544 c 108 224 171 443 198 697 c 16 147 14 3675 -2 3830 l -12 118 l 588 587 c 669 670 642 636 642 788 c 0 74 -5 99 -24 140 c -19 40 -166 192 -715 743 c -778 780 -737 745 -886 749 c -67 2 -97 -2 -140 -18 z m 255 -653 c 38 -19 137 -113 417 -393 c 413 -414 412 -412 412 -543 c 1 -142 226 94 -2651 -2781 c -2886 -2884 -2623 -2634 -2768 -2634 c -141 0 -80 -52 -978 844 c -914 912 -862 852 -862 1006 c 0 75 4 98 24 135 c 33 64 816 849 885 887 c 46 25 60 28 146 28 c 80 0 102 -4 140 -24 c 29 -15 168 -146 395 -372 l 350 -349 l 2085 2086 c 1147 1147 2099 2092 2115 2101 c 92 49 200 53 290 9 z" />
    <path d="M 19050 7390 l 0 -500 l 485 0 l 485 0 l 0 500 l 0 500 l -485 0 l -485 0 l 0 -500 z" />
    <path d="M 49240 5310 l 0 -2580 l 480 0 l 480 0 l 0 2580 l 0 2580 l -480 0 l -480 0 l 0 -2580 z" />
    <path d="M 31590 7874 c -494 -46 -845 -181 -1085 -419 c -300 -297 -466 -844 -516 -1699 c -15 -264 -6 -1032 15 -1253 c 46 -478 120 -782 261 -1063 c 204 -408 494 -633 946 -734 c 232 -52 336 -61 714 -61 c 218 0 397 5 475 13 c 205 21 533 71 730 110 l 185 37 l -2 165 c -1 91 -5 281 -9 423 l -6 259 l -32 -6 c -69 -13 -431 -56 -596 -71 c -245 -23 -739 -31 -866 -15 c -293 36 -487 150 -602 352 c -135 238 -204 753 -188 1408 c 18 710 65 1023 192 1270 c 45 89 64 115 131 183 c 101 103 254 161 485 186 c 140 16 476 13 695 -4 c 185 -15 628 -67 726 -86 c 28 -5 51 -8 53 -7 c 6 7 31 814 26 819 c -13 13 -435 100 -647 134 c -268 43 -439 57 -740 60 c -165 1 -320 1 -345 -1 z" />
    <path d="M 12590 5295 l 0 -2565 l 510 0 l 510 0 l 0 744 l 0 744 l 543 5 c 328 3 574 9 622 16 c 324 46 566 131 780 273 c 170 112 364 337 465 537 c 272 545 282 1457 21 2005 c -188 393 -545 655 -1028 755 c -238 49 -288 51 -1390 51 l -1033 0 l 0 -2565 z m 2103 1647 c 165 -46 297 -139 371 -261 c 49 -80 92 -215 112 -351 c 20 -139 14 -459 -10 -580 c -57 -276 -184 -464 -376 -559 c -147 -72 -164 -74 -702 -78 l -478 -5 l 0 932 l 0 931 l 503 -3 c 480 -4 505 -5 580 -26 z" />
    <path d="M 40998 7133 l -3 -718 l -212 -3 l -213 -2 l 0 -420 l 0 -420 l 214 0 l 215 0 l 4 -962 c 3 -824 6 -978 20 -1068 c 89 -580 260 -782 742 -877 c 130 -25 516 -25 670 0 c 164 27 409 77 418 86 c 6 6 -30 781 -37 787 c 0 1 -130 -2 -288 -7 c -317 -9 -366 -5 -438 39 c -48 30 -95 96 -112 159 c -7 24 -12 360 -15 941 l -5 902 l 446 0 l 446 0 l 0 420 l 0 420 l -442 2 l -443 3 l -3 718 l -2 717 l -480 0 l -480 0 l -2 -717 z" />
    <path d="M 18540 6471 c -290 -76 -643 -225 -923 -390 c -47 -28 -88 -51 -91 -51 c -3 0 -6 86 -6 190 l 0 190 l -480 0 l -480 0 l 0 -1840 l 0 -1840 l 485 0 l 485 0 l 0 1234 l 0 1233 l 158 52 c 230 75 584 168 885 233 l 107 23 l 0 497 c 0 468 -1 498 -17 497 c -10 0 -65 -13 -123 -28 z" />
    <path d="M 22154 6480 c -171 -37 -413 -134 -582 -233 l -62 -36 l 0 99 l 0 100 l -480 0 l -480 0 l 0 -1840 l 0 -1840 l 480 0 l 480 0 l 2 1377 l 3 1377 l 130 42 c 437 142 755 117 887 -71 c 56 -79 96 -241 118 -470 c 6 -67 10 -526 10 -1182 l 0 -1073 l 485 0 l 485 0 l 0 1088 c 0 598 -5 1186 -10 1307 c -5 121 -11 249 -12 285 l -3 65 l 65 23 c 36 13 115 36 176 52 c 265 69 472 83 599 42 c 137 -45 213 -127 264 -287 c 66 -203 65 -183 68 -1437 l 4 -1138 l 484 0 l 485 0 l 0 1093 c 0 624 -4 1154 -10 1237 c -32 462 -125 812 -273 1030 c -135 198 -360 331 -653 385 c -139 26 -413 31 -572 11 c -279 -36 -593 -136 -886 -283 l -89 -45 l -41 40 c -145 137 -320 227 -531 272 c -151 32 -418 37 -541 10 z" />
    <path d="M 27400 6489 c -360 -41 -644 -169 -860 -388 c -244 -247 -391 -597 -456 -1082 c -22 -164 -31 -680 -15 -861 c 55 -625 222 -1017 531 -1247 c 191 -143 442 -230 750 -262 c 161 -17 596 -6 818 20 c 288 34 570 84 836 147 l 109 26 l -7 362 c -4 198 -9 363 -11 365 c -3 2 -80 -4 -172 -13 c -307 -29 -554 -40 -978 -40 c -378 -1 -426 1 -485 17 c -167 47 -291 142 -353 270 c -39 79 -66 189 -70 282 l -2 60 l 1063 3 c 839 2 1062 5 1062 15 c 0 6 16 165 36 352 c 36 333 37 343 26 515 c -26 393 -109 674 -273 917 c -209 310 -561 494 -1038 542 c -119 13 -401 12 -511 0 z m 410 -810 c 157 -25 280 -93 345 -192 c 68 -103 115 -306 115 -495 l 0 -92 l -622 2 l -623 3 l 3 70 c 8 175 45 353 96 453 c 49 96 145 181 246 218 c 112 40 306 55 440 33 z" />
    <path d="M 34830 6489 c -384 -39 -688 -167 -900 -379 c -175 -176 -316 -444 -394 -756 c -65 -255 -92 -544 -83 -884 c 12 -452 77 -761 221 -1055 c 203 -415 540 -657 1036 -746 c 146 -27 487 -37 652 -20 c 739 77 1177 472 1342 1211 c 52 236 61 336 60 720 c 0 319 -2 370 -22 500 c -44 279 -97 460 -192 655 c -80 165 -148 264 -255 371 c -216 219 -509 342 -914 383 c -119 13 -427 12 -551 0 z m 446 -844 c 234 -45 378 -191 449 -457 c 48 -179 59 -298 59 -613 c 0 -316 -11 -434 -59 -615 c -88 -329 -279 -479 -608 -480 c -332 0 -529 150 -616 470 c -89 328 -92 888 -6 1225 c 83 329 274 481 607 484 c 53 1 131 -6 174 -14 z" />
    <path d="M 38830 6485 c -201 -34 -454 -130 -647 -244 l -53 -31 l 0 100 l 0 100 l -480 0 l -480 0 l 0 -1840 l 0 -1840 l 485 0 l 485 0 l 0 1378 l 0 1378 l 133 42 c 420 133 742 116 890 -47 c 72 -80 123 -222 154 -425 c 14 -97 17 -251 20 -1218 l 4 -1108 l 486 0 l 485 0 l -5 1148 c -3 760 -9 1186 -16 1262 c -63 629 -219 993 -504 1177 c -189 123 -438 184 -742 182 c -77 -1 -174 -7 -215 -14 z" />
    <path d="M 45296 6479 c -284 -70 -614 -206 -926 -382 l -115 -65 l -3 189 l -2 189 l -480 0 l -480 0 l 0 -1840 l 0 -1840 l 485 0 l 485 0 l 0 1235 l 0 1234 l 158 51 c 199 65 464 136 755 203 l 227 52 l 0 497 c 0 392 -3 498 -12 497 c -7 0 -49 -9 -92 -20 z" />
    <path d="M 47025 6494 c -16 -2 -73 -9 -125 -15 c -188 -21 -418 -92 -570 -176 c -398 -217 -637 -656 -716 -1314 c -24 -199 -24 -628 0 -829 c 81 -681 329 -1110 774 -1338 c 244 -126 512 -182 867 -182 c 355 0 623 56 867 182 c 445 228 693 658 774 1338 c 21 178 24 619 5 790 c -75 679 -317 1132 -721 1353 c -144 79 -334 141 -535 173 c -95 15 -546 28 -620 18 z m 467 -867 c 252 -81 376 -286 424 -702 c 23 -203 15 -641 -15 -809 c -40 -225 -94 -361 -182 -459 c -60 -67 -125 -109 -227 -145 c -71 -25 -89 -27 -237 -27 c -148 0 -166 2 -237 27 c -237 84 -344 242 -409 604 c -30 168 -38 606 -15 809 c 47 403 169 615 402 695 c 93 32 149 39 289 36 c 105 -3 145 -9 207 -29 z" />
    <path d="M 19050 4570 l 0 -1840 l 485 0 l 485 0 l 0 1840 l 0 1840 l -485 0 l -485 0 l 0 -1840 z" />
  </g>
</svg>