<?xml version="1.0" encoding="utf-8"?>
<!-- Generator: Adobe Illustrator 16.0.0, SVG Export Plug-In . SVG Version: 6.00 Build 0)  -->
<!DOCTYPE svg PUBLIC "-//W3C//DTD SVG 1.1//EN" "http://www.w3.org/Graphics/SVG/1.1/DTD/svg11.dtd">
<svg version="1.1" xmlns="http://www.w3.org/2000/svg" xmlns:xlink="http://www.w3.org/1999/xlink" x="0px" y="0px"
	 width="489.304px" height="371.444px" viewBox="0 0 489.304 371.444" enable-background="new 0 0 489.304 371.444"
	 xml:space="preserve">
<g id="BG">
</g>
<g id="Logos">
	<g>
		<path fill="#8DC641" stroke="#6ABD45" stroke-miterlimit="10" d="M291.693,173.126"/>
		<path fill="#F58220" d="M284.193,168.314c0.08,0.787,0.119,1.585,0.119,2.391v33.089c0,12.859-10.484,23.387-23.325,23.46h6.573
			c11.636,0,21.156-9.52,21.156-21.155v-29.834c0-3.596-0.911-6.99-2.512-9.963L284.193,168.314z"/>
		<linearGradient id="SVGID_1_" gradientUnits="userSpaceOnUse" x1="199.8906" y1="231.665" x2="288.2867" y2="143.2689">
			<stop  offset="0.0887" style="stop-color:#002753"/>
			<stop  offset="0.6724" style="stop-color:#004A8F"/>
		</linearGradient>
		<path fill="url(#SVGID_1_)" d="M294.338,149.32l-12.797-12.795c-2.433-2.435-6.414-2.435-8.848,0l-10.744,10.743
			c-0.367-0.017-0.73-0.028-1.101-0.028h-33.087c-12.906,0-23.467,10.56-23.467,23.465v33.089c0,1.786,0.206,3.522,0.588,5.196
			c-0.329,0.214-0.648,0.458-0.945,0.741l-8.957,8.562c-2.49,2.377-2.447,6.223,0.092,8.544l9.035,8.255
			c2.539,2.321,6.555,2.178,8.92-0.317l7.686-8.104c0.123-0.127,0.234-0.263,0.342-0.397c2.131,0.638,4.38,0.986,6.707,0.986h33.087
			c12.905,0,23.464-10.56,23.464-23.465v-33.089c0-0.806-0.039-1.604-0.119-2.391l10.145-10.144
			C296.772,155.735,296.772,151.754,294.338,149.32z"/>
		<path fill="#FFFFFF" d="M285.891,151.387l-6.485-6.483c-1.214-1.217-3.208-1.217-4.426,0l-41.26,41.258l-6.589-6.588
			c-1.217-1.217-3.207-1.217-4.421,0l-7.441,7.437c-1.214,1.217-1.214,3.208,0,4.425l8.804,8.801l2.582,2.582l3.901,3.903
			c1.217,1.215,3.207,1.215,4.424,0l50.911-50.91C287.105,154.595,287.105,152.605,285.891,151.387z"/>
		<path fill="#F58220" d="M203.938,209.731c0.297-0.282,0.616-0.527,0.945-0.741c-0.382-1.674-0.588-3.41-0.588-5.196v-33.089
			c0-12.792,10.376-23.274,23.127-23.456h-7.066c-11.638,0-21.157,9.52-21.157,21.155v29.834c0,4.559,1.468,8.79,3.945,12.253
			L203.938,209.731z"/>
	</g>
</g>
<g id="Cores">
</g>
<g id="Guias" display="none">
</g>
</svg>
